<?xml version="1.0" encoding="UTF-8" standalone="no"?>
    <svg id="demo-tiger"  xmlns="http://www.w3.org/2000/svg" xmlns:xlink="http://www.w3.org/1999/xlink" viewBox="0 0 800 800" version="1.1">
    <g id="g4" fill="none" transform="translate(-300.000000,-350.000000) matrix(1.7656463,0,0,1.7656463,324.90716,255.00942)">
    
<g
id="layer1" transform="translate(150.000000,449.000000)rotate(0.000000,150.000000,449.000000)scale(0.7)">
<g transform="translate(-12,-3)">
<text x="-10.000000" y1="475.000000" font-size="5" fill="black">Ground</text>
<text x="75.000000" y1="475.000000" font-size="5" fill="black">Net 1</text>
<text x="150.000000" y1="475.000000" font-size="5" fill="black">Net 2</text>
<text x="235.000000" y1="475.000000" font-size="5" fill="black">Net 3</text>
<path
d="M 0.5,24.5 L 24.5,24.5"
style="fill:none;fill-opacity:0.75;fill-rule:evenodd;stroke:#000000;stroke-width:1.5px;stroke-linecap:butt;stroke-linejoin:miter;stroke-opacity:1"
id="path4098" />
<path
d="M 4.5,27.5 L 20.5,27.5"
style="fill:none;fill-opacity:0.75;fill-rule:evenodd;stroke:#000000;stroke-width:1.5px;stroke-linecap:butt;stroke-linejoin:miter;stroke-opacity:1"
id="path4100" />
<path
d="M 16.5,30.5 L 8.5,30.5"
style="fill:none;fill-opacity:0.75;fill-rule:evenodd;stroke:#000000;stroke-width:1.5px;stroke-linecap:butt;stroke-linejoin:miter;stroke-opacity:1"
id="path4102" />
<path
d="M 12.5,24.5 L 12.5,4.5"
style="fill:none;fill-opacity:0.75;fill-rule:evenodd;stroke:#000000;stroke-width:1.5px;stroke-linecap:butt;stroke-linejoin:miter;stroke-opacity:1"
id="path4104" />
</g>
</g>
<line x1="150.000000" y1="450.000000" x2="150.000000" y2="450.000000" stroke-width="1" stroke="black"/>
<line x1="200.000000" y1="450.000000" x2="200.000000" y2="450.000000" stroke-width="1" stroke="black"/>
<line x1="150.000000" y1="450.000000" x2="150.000000" y2="450.000000" stroke-width="1" stroke="black"/>
<line x1="200.000000" y1="450.000000" x2="200.000000" y2="450.000000" stroke-width="1" stroke="black"/>
<g 
 id="g4164" 
 transform="translate(175.000000,443.000000) rotate(90.000000,0,0)">
    <g transform="translate(0,-7)">
    <a xlink:href="v0.html" target="_blank">
    <g transform="translate(20,4.5)">
    <path
        nodetypes="czzzc"
        connector-curvature="0"
       transform="rotate(110,0,0)"
       id="path5536-8-3"
       d="m 0.3478974,9.7865691 c 0.67934,2.0380199 2.07525,4.0760499 4.09466,4.0760499 2.01941,0 3.3781,-2.03803 4.05744,-4.0760499 0.6793396,-2.03803 2.0380296,-4.07605 4.0760496,-4.07605 2.03803,0 3.39671,2.03802 4.07605,4.07605"
       style="fill:none;fill-rule:evenodd;stroke:#000000;stroke-width:1;stroke-linecap:butt;stroke-linejoin:miter;stroke-miterlimit:4;stroke-dasharray:none;stroke-opacity:1" />
    </g>
    <circle
       r="10"
       cy="9.7865725"
       cx="8.4999971"
       id="path14021-7-1-7"
       style="color:#000000;clip-rule:nonzero;display:inline;overflow:visible;visibility:visible;opacity:1;isolation:auto;mix-blend-mode:normal;color-interpolation:sRGB;color-interpolation-filters:linearRGB;solid-color:#000000;solid-opacity:1;fill:none;fill-opacity:1;fill-rule:nonzero;stroke:#000000;stroke-width:1;stroke-linecap:butt;stroke-linejoin:miter;stroke-miterlimit:4;stroke-dasharray:none;stroke-dashoffset:0;stroke-opacity:1;marker:none;color-rendering:auto;image-rendering:auto;shape-rendering:auto;text-rendering:auto;enable-background:accumulate" />
  <line x1="7.000000" y1="20.000000" x2="7.000000" y2="32.50000" stroke-width="1" stroke="black"/>
    <line x1="7.000000" y1="0.000000" x2="7.000000" y2="-19.000000" stroke-width="1" stroke="black"/>
  <text x="6" y="23" transform="rotate(90,8,23)" font-size="5" fill="black">+</text>
    <text x="8" y="-2" font-size="7" transform="translate(0,-2) rotate(90,8,-2)" fill="black">-</text>
    <text x="-80" y="-8" font-size="3"  fill="black" transform="rotate(-90,0,0) translate(50,4)">V2 SINE (0 5 0.09Khz 0S  0)
</text></a>
</g>
</g>
<line x1="150.000000" y1="450.000000" x2="150.000000" y2="400.000000" stroke-width="1" stroke="black"/>
<line x1="300.000000" y1="450.000000" x2="300.000000" y2="400.000000" stroke-width="1" stroke="black"/>
<line x1="150.000000" y1="400.000000" x2="200.000000" y2="400.000000" stroke-width="1" stroke="black"/>
<line x1="250.000000" y1="400.000000" x2="300.000000" y2="400.000000" stroke-width="1" stroke="black"/>
<a xlink:href="c0.html" target="_blank">
<g
 label="Capacitor"
transform="rotate(0.000000,200.000000,400.000000) translate(200.000000,400.000000)"
     id="g4198">
    <g transform="translate(0,-30)">
    <g
        label="Capacitor"
       id="g4200">
      <path
         d="m 0,30 h 23"
         style="fill:none;stroke:#000000;stroke-width:1;stroke-linecap:round;stroke-linejoin:round;stroke-dasharray:none"
          label="none"
         id="path4202"
          connector-curvature="0" />
      <path
         d="M 50,30 H 27"
         style="fill:none;stroke:#000000;stroke-width:1;stroke-linecap:round;stroke-linejoin:round;stroke-dasharray:none"
          label="none"
         id="path4204"
          connector-curvature="0" />
      <path
         d="M 23,37 V 23"
         style="fill:none;stroke:#000000;stroke-width:1;stroke-linecap:round;stroke-linejoin:round;stroke-dasharray:none"
          label="none"
         id="path4206"
          connector-curvature="0" />
      <path
         d="M 27,37 V 23"
         style="fill:none;stroke:#000000;stroke-width:1;stroke-linecap:round;stroke-linejoin:round;stroke-dasharray:none"
          label="none"
         id="path4208"
          connector-curvature="0" />
    </g>
    <text x="20" y="45" font-size="3" fill="black" >C1(1UF)</text>
</g>
</g>
</a>
<line x1="200.000000" y1="450.000000" x2="200.000000" y2="450.000000" stroke-width="1" stroke="black"/>
<line x1="250.000000" y1="450.000000" x2="250.000000" y2="450.000000" stroke-width="1" stroke="black"/>
<line x1="200.000000" y1="450.000000" x2="200.000000" y2="450.000000" stroke-width="1" stroke="black"/>
<line x1="250.000000" y1="450.000000" x2="250.000000" y2="450.000000" stroke-width="1" stroke="black"/>
<g 
 id="g4164" 
 transform="translate(225.000000,443.000000) rotate(90.000000,0,0)">
    <g transform="translate(0,-7)">
    <a xlink:href="i0.html" target="_blank">
    <g transform="translate(20,4.5)">
<g transform="translate(-7,-5) rotate(90,0,5)"><line x1="0" y1="10" x2="10.5" y2="10" stroke="#000" 
      stroke-width="1" />
      <line x1="8" y1="15" x2="10" y2="10" stroke="#000" 
      stroke-width="1" />
      <line x1="8" y1="5" x2="10" y2="10" stroke="#000" 
      stroke-width="1" />
      </g>
    </g>
    <circle
       r="10"
       cy="9.7865725"
       cx="8.4999971"
       id="path14021-7-1-7"
       style="color:#000000;clip-rule:nonzero;display:inline;overflow:visible;visibility:visible;opacity:1;isolation:auto;mix-blend-mode:normal;color-interpolation:sRGB;color-interpolation-filters:linearRGB;solid-color:#000000;solid-opacity:1;fill:none;fill-opacity:1;fill-rule:nonzero;stroke:#000000;stroke-width:1;stroke-linecap:butt;stroke-linejoin:miter;stroke-miterlimit:4;stroke-dasharray:none;stroke-dashoffset:0;stroke-opacity:1;marker:none;color-rendering:auto;image-rendering:auto;shape-rendering:auto;text-rendering:auto;enable-background:accumulate" />
  <line x1="7.000000" y1="20.000000" x2="7.000000" y2="32.50000" stroke-width="1" stroke="black"/>
    <line x1="7.000000" y1="0.000000" x2="7.000000" y2="-19.000000" stroke-width="1" stroke="black"/>
    <text x="-80" y="-8" font-size="3" fill="black" transform="rotate(-90,0,0) translate(50,4)">I1 SINE (0 5 0.06Khz 0S  0)
</text></a>
</g>
</g>
<line x1="250.000000" y1="450.000000" x2="250.000000" y2="450.000000" stroke-width="1" stroke="black"/>
<line x1="300.000000" y1="450.000000" x2="300.000000" y2="450.000000" stroke-width="1" stroke="black"/>
<line x1="250.000000" y1="450.000000" x2="250.000000" y2="450.000000" stroke-width="1" stroke="black"/>
<line x1="300.000000" y1="450.000000" x2="300.000000" y2="450.000000" stroke-width="1" stroke="black"/>
<a xlink:href="r0.html" target="_blank" >
<g
id="g4169"
transform="rotate(0.000000,250.000000,450.000000)"
 label="Resistor">
<g transform="translate(250.000000,450.000000)">
<g
id="g4171">
<path
id="path4173"
 label="none"
style="fill:none;stroke:#000000;stroke-width:1;stroke-linecap:round;stroke-linejoin:round;stroke-dasharray:none"
d="m 0,0 h 15.5 l 2,3 3,-6 3,6 3,-6 3,6 3,-6 2,3 H 50"
 connector-curvature="0" />
<text x="20" y="10" font-size="3" fill="black" >R1(2.2Kohm)
</text>
</g>
</g>
</g>
</a>
</g>
</svg>