<?xml version="1.0" encoding="UTF-8" standalone="no"?>
    <svg id="demo-tiger"  xmlns="http://www.w3.org/2000/svg" xmlns:sodipodi="http://sodipodi.sourceforge.net/DTD/sodipodi-0.dtd" xmlns:inkscape="http://www.inkscape.org/namespaces/inkscape" viewBox="0 0 800 800" version="1.1">
    <g id="g4" fill="none" transform="translate(-300.000000,-650.000000) matrix(1.7656463,0,0,1.7656463,324.90716,255.00942)">
    
<g
id="layer1" transform="translate(150.000000,449.000000)rotate(0.000000,150.000000,449.000000)scale(0.7)">
<g transform="translate(-12,-3)">
<path
d="M 0.5,24.5 L 24.5,24.5"
style="fill:none;fill-opacity:0.75;fill-rule:evenodd;stroke:#000000;stroke-width:1.5px;stroke-linecap:butt;stroke-linejoin:miter;stroke-opacity:1"
id="path4098" />
<path
d="M 4.5,27.5 L 20.5,27.5"
style="fill:none;fill-opacity:0.75;fill-rule:evenodd;stroke:#000000;stroke-width:1.5px;stroke-linecap:butt;stroke-linejoin:miter;stroke-opacity:1"
id="path4100" />
<path
d="M 16.5,30.5 L 8.5,30.5"
style="fill:none;fill-opacity:0.75;fill-rule:evenodd;stroke:#000000;stroke-width:1.5px;stroke-linecap:butt;stroke-linejoin:miter;stroke-opacity:1"
id="path4102" />
<path
d="M 12.5,24.5 L 12.5,4.5"
style="fill:none;fill-opacity:0.75;fill-rule:evenodd;stroke:#000000;stroke-width:1.5px;stroke-linecap:butt;stroke-linejoin:miter;stroke-opacity:1"
id="path4104" />
</g>
</g>
<line x1="150.000000" y1="450.000000" x2="150.000000" y2="450.000000" stroke-width="1" stroke="black"/>
<line x1="200.000000" y1="450.000000" x2="200.000000" y2="450.000000" stroke-width="1" stroke="black"/>
<line x1="150.000000" y1="450.000000" x2="150.000000" y2="450.000000" stroke-width="1" stroke="black"/>
<line x1="200.000000" y1="450.000000" x2="200.000000" y2="450.000000" stroke-width="1" stroke="black"/>
<g 
 id="g4164" 
 transform="translate(175.000000,443.000000) rotate(90.000000,0,0)">
    <g transform="translate(0,-7)">
    <g transform="translate(20,4.5)">
    <path
       sodipodi:nodetypes="czzzc"
       inkscape:connector-curvature="0"
       transform="rotate(110,0,0)"
       id="path5536-8-3"
       d="m 0.3478974,9.7865691 c 0.67934,2.0380199 2.07525,4.0760499 4.09466,4.0760499 2.01941,0 3.3781,-2.03803 4.05744,-4.0760499 0.6793396,-2.03803 2.0380296,-4.07605 4.0760496,-4.07605 2.03803,0 3.39671,2.03802 4.07605,4.07605"
       style="fill:none;fill-rule:evenodd;stroke:#000000;stroke-width:1;stroke-linecap:butt;stroke-linejoin:miter;stroke-miterlimit:4;stroke-dasharray:none;stroke-opacity:1" />
    </g>
    <circle
       r="10"
       cy="9.7865725"
       cx="8.4999971"
       id="path14021-7-1-7"
       style="color:#000000;clip-rule:nonzero;display:inline;overflow:visible;visibility:visible;opacity:1;isolation:auto;mix-blend-mode:normal;color-interpolation:sRGB;color-interpolation-filters:linearRGB;solid-color:#000000;solid-opacity:1;fill:none;fill-opacity:1;fill-rule:nonzero;stroke:#000000;stroke-width:1;stroke-linecap:butt;stroke-linejoin:miter;stroke-miterlimit:4;stroke-dasharray:none;stroke-dashoffset:0;stroke-opacity:1;marker:none;color-rendering:auto;image-rendering:auto;shape-rendering:auto;text-rendering:auto;enable-background:accumulate" />
	<line x1="7.000000" y1="20.000000" x2="7.000000" y2="34.000000" stroke-width="1" stroke="black"/>
    <line x1="7.000000" y1="0.000000" x2="7.000000" y2="-19.000000" stroke-width="1" stroke="black"/>
    <text x="-90" y="-8" font-size="3" fill="black" transform="rotate(-90,0,0) translate(50,4)">V1 SINE (0.000000 0.000000 0.000000Khz 0.000000S  0.000000)
</text>
</g>
</g>
<line x1="150.000000" y1="450.000000" x2="150.000000" y2="400.000000" stroke-width="1" stroke="black"/>
<line x1="300.000000" y1="450.000000" x2="300.000000" y2="400.000000" stroke-width="1" stroke="black"/>
<line x1="150.000000" y1="400.000000" x2="200.000000" y2="400.000000" stroke-width="1" stroke="black"/>
<line x1="250.000000" y1="400.000000" x2="300.000000" y2="400.000000" stroke-width="1" stroke="black"/>
<g
id="g4169"
transform="rotate(0.000000,200.000000,400.000000)"
inkscape:label="Resistor">
<g transform="translate(200.000000,400.000000)">
<g
id="g4171">
<path
id="path4173"
inkscape:label="none"
style="fill:none;stroke:#000000;stroke-width:1;stroke-linecap:round;stroke-linejoin:round;stroke-dasharray:none"
d="m 0,0 h 15.5 l 2,3 3,-6 3,6 3,-6 3,6 3,-6 2,3 H 50"
inkscape:connector-curvature="0" />
<text x="13" y="15" font-size="3" fill="black" >R1(10.000000x)
</text>
</g>
</g>
</g>
<line x1="200.000000" y1="450.000000" x2="200.000000" y2="450.000000" stroke-width="1" stroke="black"/>
<line x1="250.000000" y1="450.000000" x2="250.000000" y2="450.000000" stroke-width="1" stroke="black"/>
<line x1="200.000000" y1="450.000000" x2="200.000000" y2="450.000000" stroke-width="1" stroke="black"/>
<line x1="250.000000" y1="450.000000" x2="250.000000" y2="450.000000" stroke-width="1" stroke="black"/>
 <g 
 inkscape:label="Inductor" 
 transform="rotate(0.000000,200.000000,450.000000)" 
 id="g4326"> 
 <g transform="translate(200.000000,450.000000
    )">`
    <g transform="translate(-360,-530)">
    <g
       inkscape:label="Inductor"
       id="g4328">
      <path
         d="m 360,530 h 13"
         style="fill:none;stroke:#000000;stroke-width:1;stroke-linecap:round;stroke-linejoin:round;stroke-dasharray:none"
         inkscape:label="none"
         id="path4330"
         inkscape:connector-curvature="0" />
      <path
         d="M 410,530 H 397"
         style="fill:none;stroke:#000000;stroke-width:1;stroke-linecap:round;stroke-linejoin:round;stroke-dasharray:none"
         inkscape:label="none"
         id="path4332"
         inkscape:connector-curvature="0" />
      <path
         d="m 379,530 a 3,3 0 0 1 -1.5,2.5980762114 3,3 0 0 1 -3,0 A 3,3 0 0 1 373,530"
         style="fill:none;stroke:#000000;stroke-width:1;stroke-linecap:round;stroke-linejoin:round;stroke-dasharray:none"
         sodipodi:cx="376"
         sodipodi:cy="530"
         sodipodi:end="3.14159265359"
         sodipodi:open="true"
         sodipodi:rx="3"
         sodipodi:ry="3"
         sodipodi:start="0"
         sodipodi:type="arc"
         inkscape:label="arc"
         id="path4334" />
      <path
         d="m 385,530 a 3,3 0 0 1 -1.5,2.5980762114 3,3 0 0 1 -3,0 A 3,3 0 0 1 379,530"
         style="fill:none;stroke:#000000;stroke-width:1;stroke-linecap:round;stroke-linejoin:round;stroke-dasharray:none"
         sodipodi:cx="382"
         sodipodi:cy="530"
         sodipodi:end="3.14159265359"
         sodipodi:open="true"
         sodipodi:rx="3"
         sodipodi:ry="3"
         sodipodi:start="0"
         sodipodi:type="arc"
         inkscape:label="arc"
         id="path4336" />
      <path
         d="m 391,530 a 3,3 0 0 1 -1.5,2.5980762114 3,3 0 0 1 -3,0 A 3,3 0 0 1 385,530"
         style="fill:none;stroke:#000000;stroke-width:1;stroke-linecap:round;stroke-linejoin:round;stroke-dasharray:none"
         sodipodi:cx="388"
         sodipodi:cy="530"
         sodipodi:end="3.14159265359"
         sodipodi:open="true"
         sodipodi:rx="3"
         sodipodi:ry="3"
         sodipodi:start="0"
         sodipodi:type="arc"
         inkscape:label="arc"
         id="path4338" />
      <path
         d="m 397,530 a 3,3 0 0 1 -1.5,2.5980762114 3,3 0 0 1 -3,0 A 3,3 0 0 1 391,530"
         style="fill:none;stroke:#000000;stroke-width:1;stroke-linecap:round;stroke-linejoin:round;stroke-dasharray:none"
         sodipodi:cx="394"
         sodipodi:cy="530"
         sodipodi:end="3.14159265359"
         sodipodi:open="true"
         sodipodi:rx="3"
         sodipodi:ry="3"
         sodipodi:start="0"
         sodipodi:type="arc"
         inkscape:label="arc"
         id="path4340" />
    </g>
    <text x="370" y="545" font-size="3" fill="black" >
    L1(10.000000)</text>
</g>  </g> </g>
<line x1="250.000000" y1="450.000000" x2="250.000000" y2="450.000000" stroke-width="1" stroke="black"/>
<line x1="300.000000" y1="450.000000" x2="300.000000" y2="450.000000" stroke-width="1" stroke="black"/>
<line x1="250.000000" y1="450.000000" x2="250.000000" y2="450.000000" stroke-width="1" stroke="black"/>
<line x1="300.000000" y1="450.000000" x2="300.000000" y2="450.000000" stroke-width="1" stroke="black"/>
<g
inkscape:label="Capacitor"
transform="rotate(0.000000,250.000000,450.000000) translate(250.000000,450.000000)"
     id="g4198">
    <g transform="translate(0,-30)">
    <g
       inkscape:label="Capacitor"
       id="g4200">
      <path
         d="m 0,30 h 23"
         style="fill:none;stroke:#000000;stroke-width:1;stroke-linecap:round;stroke-linejoin:round;stroke-dasharray:none"
         inkscape:label="none"
         id="path4202"
         inkscape:connector-curvature="0" />
      <path
         d="M 50,30 H 27"
         style="fill:none;stroke:#000000;stroke-width:1;stroke-linecap:round;stroke-linejoin:round;stroke-dasharray:none"
         inkscape:label="none"
         id="path4204"
         inkscape:connector-curvature="0" />
      <path
         d="M 23,37 V 23"
         style="fill:none;stroke:#000000;stroke-width:1;stroke-linecap:round;stroke-linejoin:round;stroke-dasharray:none"
         inkscape:label="none"
         id="path4206"
         inkscape:connector-curvature="0" />
      <path
         d="M 27,37 V 23"
         style="fill:none;stroke:#000000;stroke-width:1;stroke-linecap:round;stroke-linejoin:round;stroke-dasharray:none"
         inkscape:label="none"
         id="path4208"
         inkscape:connector-curvature="0" />
    </g>
    <text x="13" y="45" font-size="3" fill="black" >C1(100.000000)</text>
</g>
</g>
</g>
</svg>