<?xml version="1.0" encoding="UTF-8" standalone="no"?>
    <svg id="demo-tiger"  xmlns="http://www.w3.org/2000/svg" xmlns:xlink="http://www.w3.org/1999/xlink" viewBox="0 0 800 800" version="1.1">
    <g id="g4" fill="none" transform="translate(-300.000000,-350.000000) matrix(1.7656463,0,0,1.7656463,324.90716,255.00942)">
    
<g
id="layer1" transform="translate(150.000000,449.000000)rotate(0.000000,150.000000,449.000000)scale(0.7)">
<g transform="translate(-12,-3)">
<text x="-10.000000" y1="475.000000" font-size="5" fill="black">Ground</text>
<text x="75.000000" y1="475.000000" font-size="5" fill="black">Net 1</text>
<text x="160.000000" y1="475.000000" font-size="5" fill="black">Net 2</text>
<path
d="M 0.5,24.5 L 24.5,24.5"
style="fill:none;fill-opacity:0.75;fill-rule:evenodd;stroke:#000000;stroke-width:1.5px;stroke-linecap:butt;stroke-linejoin:miter;stroke-opacity:1"
id="path4098" />
<path
d="M 4.5,27.5 L 20.5,27.5"
style="fill:none;fill-opacity:0.75;fill-rule:evenodd;stroke:#000000;stroke-width:1.5px;stroke-linecap:butt;stroke-linejoin:miter;stroke-opacity:1"
id="path4100" />
<path
d="M 16.5,30.5 L 8.5,30.5"
style="fill:none;fill-opacity:0.75;fill-rule:evenodd;stroke:#000000;stroke-width:1.5px;stroke-linecap:butt;stroke-linejoin:miter;stroke-opacity:1"
id="path4102" />
<path
d="M 12.5,24.5 L 12.5,4.5"
style="fill:none;fill-opacity:0.75;fill-rule:evenodd;stroke:#000000;stroke-width:1.5px;stroke-linecap:butt;stroke-linejoin:miter;stroke-opacity:1"
id="path4104" />
</g>
</g>
<line x1="150.000000" y1="450.000000" x2="150.000000" y2="450.000000" stroke-width="1" stroke="black"/>
<line x1="200.000000" y1="450.000000" x2="200.000000" y2="450.000000" stroke-width="1" stroke="black"/>
<line x1="150.000000" y1="450.000000" x2="150.000000" y2="450.000000" stroke-width="1" stroke="black"/>
<line x1="200.000000" y1="450.000000" x2="200.000000" y2="450.000000" stroke-width="1" stroke="black"/>
<g 
 id="g4164" 
 transform="translate(175.000000,443.000000) rotate(90.000000,0,0)">
    <g transform="translate(0,-7)">
    <a xlink:href="i0.html" target="_blank">
    <g transform="translate(20,4.5)">
<g transform="translate(-17,6) rotate(-90,0,5)"><line x1="0" y1="10" x2="10.5" y2="10" stroke="#000" 
      stroke-width="1" />
      <line x1="8" y1="15" x2="10" y2="10" stroke="#000" 
      stroke-width="1" />
      <line x1="8" y1="5" x2="10" y2="10" stroke="#000" 
      stroke-width="1" />
      </g>
    </g>
    <circle
       r="10"
       cy="9.7865725"
       cx="8.4999971"
       id="path14021-7-1-7"
       style="color:#000000;clip-rule:nonzero;display:inline;overflow:visible;visibility:visible;opacity:1;isolation:auto;mix-blend-mode:normal;color-interpolation:sRGB;color-interpolation-filters:linearRGB;solid-color:#000000;solid-opacity:1;fill:none;fill-opacity:1;fill-rule:nonzero;stroke:#000000;stroke-width:1;stroke-linecap:butt;stroke-linejoin:miter;stroke-miterlimit:4;stroke-dasharray:none;stroke-dashoffset:0;stroke-opacity:1;marker:none;color-rendering:auto;image-rendering:auto;shape-rendering:auto;text-rendering:auto;enable-background:accumulate" />
  <line x1="7.000000" y1="20.000000" x2="7.000000" y2="32.50000" stroke-width="1" stroke="black"/>
    <line x1="7.000000" y1="0.000000" x2="7.000000" y2="-19.000000" stroke-width="1" stroke="black"/>
    </a>
    <text x="-80" y="-8" font-size="3" fill="black" transform="rotate(-90,0,0) translate(50,4)">I1 SINE (0 10 0.159Khz 0S  0)
</text>
</g>
</g>
<line x1="150.000000" y1="450.000000" x2="150.000000" y2="400.000000" stroke-width="1" stroke="black"/>
<line x1="250.000000" y1="450.000000" x2="250.000000" y2="400.000000" stroke-width="1" stroke="black"/>
<line x1="150.000000" y1="400.000000" x2="175.000000" y2="400.000000" stroke-width="1" stroke="black"/>
<line x1="225.000000" y1="400.000000" x2="250.000000" y2="400.000000" stroke-width="1" stroke="black"/>
<a xlink:href="l0.html" target="_blank">
 <g 
  label="Inductor" 
 transform="rotate(0.000000,175.000000,400.000000)" 
 id="g4326"> 
 <g transform="translate(175.000000,400.000000
    )">`
    <g transform="translate(-360,-530)">
    <g
        label="Inductor"
       id="g4328">
      <path
         d="m 360,530 h 13"
         style="fill:none;stroke:#000000;stroke-width:1;stroke-linecap:round;stroke-linejoin:round;stroke-dasharray:none"
          label="none"
         id="path4330"
          connector-curvature="0" />
      <path
         d="M 410,530 H 397"
         style="fill:none;stroke:#000000;stroke-width:1;stroke-linecap:round;stroke-linejoin:round;stroke-dasharray:none"
          label="none"
         id="path4332"
          connector-curvature="0" />
      <path
         d="m 379,530 a 3,3 0 0 1 -1.5,2.5980762114 3,3 0 0 1 -3,0 A 3,3 0 0 1 373,530"
         style="fill:none;stroke:#000000;stroke-width:1;stroke-linecap:round;stroke-linejoin:round;stroke-dasharray:none"
          cx="376"
          cy="530"
          end="3.14159265359"
          open="true"
          rx="3"
          ry="3"
          start="0"
          type="arc"
          label="arc"
         id="path4334" />
      <path
         d="m 385,530 a 3,3 0 0 1 -1.5,2.5980762114 3,3 0 0 1 -3,0 A 3,3 0 0 1 379,530"
         style="fill:none;stroke:#000000;stroke-width:1;stroke-linecap:round;stroke-linejoin:round;stroke-dasharray:none"
          cx="382"
          cy="530"
          end="3.14159265359"
          open="true"
          rx="3"
          ry="3"
          start="0"
          type="arc"
          label="arc"
         id="path4336" />
      <path
         d="m 391,530 a 3,3 0 0 1 -1.5,2.5980762114 3,3 0 0 1 -3,0 A 3,3 0 0 1 385,530"
         style="fill:none;stroke:#000000;stroke-width:1;stroke-linecap:round;stroke-linejoin:round;stroke-dasharray:none"
          cx="388"
          cy="530"
          end="3.14159265359"
          open="true"
          rx="3"
          ry="3"
          start="0"
          type="arc"
          label="arc"
         id="path4338" />
      <path
         d="m 397,530 a 3,3 0 0 1 -1.5,2.5980762114 3,3 0 0 1 -3,0 A 3,3 0 0 1 391,530"
         style="fill:none;stroke:#000000;stroke-width:1;stroke-linecap:round;stroke-linejoin:round;stroke-dasharray:none"
          cx="394"
          cy="530"
          end="3.14159265359"
          open="true"
          rx="3"
          ry="3"
          start="0"
          type="arc"
          label="arc"
         id="path4340" />
    </g>
    <text x="380" y="540" font-size="3" fill="black" >
    L1(10MH)</text>
</g>  
</g> 
</g>
</a>
<line x1="200.000000" y1="450.000000" x2="200.000000" y2="450.000000" stroke-width="1" stroke="black"/>
<line x1="250.000000" y1="450.000000" x2="250.000000" y2="450.000000" stroke-width="1" stroke="black"/>
<line x1="200.000000" y1="450.000000" x2="200.000000" y2="450.000000" stroke-width="1" stroke="black"/>
<line x1="250.000000" y1="450.000000" x2="250.000000" y2="450.000000" stroke-width="1" stroke="black"/>
<a xlink:href="r0.html" target="_blank" >
<g
id="g4169"
transform="rotate(0.000000,200.000000,450.000000)"
 label="Resistor">
<g transform="translate(200.000000,450.000000)">
<g
id="g4171">
<path
id="path4173"
 label="none"
style="fill:none;stroke:#000000;stroke-width:1;stroke-linecap:round;stroke-linejoin:round;stroke-dasharray:none"
d="m 0,0 h 15.5 l 2,3 3,-6 3,6 3,-6 3,6 3,-6 2,3 H 50"
 connector-curvature="0" />
<text x="20" y="10" font-size="3" fill="black" >R1(10ohm)
</text>
</g>
</g>
</g>
</a>
</g>
</svg>